# MagicaVoxel @ Ephtracy

# group
o 

# material
mtllib sword.mtl
usemtl palette

# normals
vn -1 0 0
vn 1 0 0
vn 0 0 1
vn 0 0 -1
vn 0 -1 0
vn 0 1 0

# texcoords
vt 0.970703 0.5
vt 0.974609 0.5
vt 0.978516 0.5
vt 0.982422 0.5

# verts
v -0.8 1.1 0.3
v -0.8 1.1 -0.3
v -0.8 1.3 0.3
v -0.8 1.3 -0.3
v -0.7 1.3 0.3
v -0.7 1.3 -0.3
v -0.7 1.4 0.3
v -0.7 1.4 -0.3
v -0.6 1.4 0.3
v -0.6 1.4 -0.3
v -0.6 1.5 0.3
v -0.6 1.5 -0.3
v -0.5 1.5 0.2
v -0.5 1.5 -0.2
v -0.5 3.1 0.2
v -0.5 3.1 -0.2
v -0.4 3.1 0.2
v -0.4 3.1 -0.2
v -0.4 3.3 0.2
v -0.4 3.3 -0.2
v -0.3 0.1 0.1
v -0.3 0.1 -0.1
v -0.3 0.4 0.1
v -0.3 0.4 -0.1
v -0.3 3.3 0.2
v -0.3 3.3 -0.2
v -0.3 3.5 0.2
v -0.3 3.5 -0.2
v -0.2 0 0.1
v -0.2 0 -0.1
v -0.2 0.1 0.2
v -0.2 0.1 0.1
v -0.2 0.1 -0.1
v -0.2 0.1 -0.2
v -0.2 0.4 0.2
v -0.2 0.4 0.1
v -0.2 0.4 -0.1
v -0.2 0.4 -0.2
v -0.2 0.5 0.1
v -0.2 0.5 -0.1
v -0.2 3.5 0.2
v -0.2 3.5 -0.2
v -0.2 3.7 0.2
v -0.2 3.7 -0.2
v -0.1 0 0.2
v -0.1 0 0.1
v -0.1 0 -0.1
v -0.1 0 -0.2
v -0.1 0.1 0.3
v -0.1 0.1 0.2
v -0.1 0.1 0.1
v -0.1 0.1 -0.1
v -0.1 0.1 -0.2
v -0.1 0.1 -0.3
v -0.1 0.4 0.3
v -0.1 0.4 0.2
v -0.1 0.4 0.1
v -0.1 0.4 -0.1
v -0.1 0.4 -0.2
v -0.1 0.4 -0.3
v -0.1 0.5 0.2
v -0.1 0.5 0.1
v -0.1 0.5 -0.1
v -0.1 0.5 -0.2
v -0.1 0.6 0.1
v -0.1 0.6 -0.1
v -0.1 1.2 0.1
v -0.1 1.2 -0.1
v -0.1 1.3 0.1
v -0.1 1.3 -0.1
v -0.1 3.7 0.2
v -0.1 3.7 -0.2
v -0.1 3.9 0.2
v -0.1 3.9 -0.2
v 0.5 1.2 0.3
v 0.5 1.2 -0.3
v 0.5 1.3 0.3
v 0.5 1.3 -0.3
v 0.6 1.1 0.3
v 0.6 1.1 -0.3
v 0.6 1.2 0.3
v 0.6 1.2 -0.3
v -0.6 1.1 0.3
v -0.6 1.1 -0.3
v -0.6 1.2 0.3
v -0.6 1.2 -0.3
v -0.5 1.2 0.3
v -0.5 1.2 -0.3
v -0.5 1.3 0.3
v -0.5 1.3 -0.3
v 0.1 0 0.2
v 0.1 0 0.1
v 0.1 0 -0.1
v 0.1 0 -0.2
v 0.1 0.1 0.3
v 0.1 0.1 0.2
v 0.1 0.1 0.1
v 0.1 0.1 -0.1
v 0.1 0.1 -0.2
v 0.1 0.1 -0.3
v 0.1 0.4 0.3
v 0.1 0.4 0.2
v 0.1 0.4 0.1
v 0.1 0.4 -0.1
v 0.1 0.4 -0.2
v 0.1 0.4 -0.3
v 0.1 0.5 0.2
v 0.1 0.5 0.1
v 0.1 0.5 -0.1
v 0.1 0.5 -0.2
v 0.1 0.6 0.1
v 0.1 0.6 -0.1
v 0.1 1.2 0.1
v 0.1 1.2 -0.1
v 0.1 1.3 0.1
v 0.1 1.3 -0.1
v 0.1 3.7 0.2
v 0.1 3.7 -0.2
v 0.1 3.9 0.2
v 0.1 3.9 -0.2
v 0.2 0 0.1
v 0.2 0 -0.1
v 0.2 0.1 0.2
v 0.2 0.1 0.1
v 0.2 0.1 -0.1
v 0.2 0.1 -0.2
v 0.2 0.4 0.2
v 0.2 0.4 0.1
v 0.2 0.4 -0.1
v 0.2 0.4 -0.2
v 0.2 0.5 0.1
v 0.2 0.5 -0.1
v 0.2 3.5 0.2
v 0.2 3.5 -0.2
v 0.2 3.7 0.2
v 0.2 3.7 -0.2
v 0.3 0.1 0.1
v 0.3 0.1 -0.1
v 0.3 0.4 0.1
v 0.3 0.4 -0.1
v 0.3 3.3 0.2
v 0.3 3.3 -0.2
v 0.3 3.5 0.2
v 0.3 3.5 -0.2
v 0.4 3.1 0.2
v 0.4 3.1 -0.2
v 0.4 3.3 0.2
v 0.4 3.3 -0.2
v 0.5 1.5 0.2
v 0.5 1.5 -0.2
v 0.5 3.1 0.2
v 0.5 3.1 -0.2
v 0.6 1.4 0.3
v 0.6 1.4 -0.3
v 0.6 1.5 0.3
v 0.6 1.5 -0.3
v 0.7 1.3 0.3
v 0.7 1.3 -0.3
v 0.7 1.4 0.3
v 0.7 1.4 -0.3
v 0.8 1.1 0.3
v 0.8 1.1 -0.3
v 0.8 1.3 0.3
v 0.8 1.3 -0.3
v -0.8 1.1 0.3
v -0.8 1.3 0.3
v -0.7 1.3 0.3
v -0.7 1.4 0.3
v -0.6 1.1 0.3
v -0.6 1.2 0.3
v -0.6 1.4 0.3
v -0.6 1.5 0.3
v -0.5 1.2 0.3
v -0.5 1.3 0.3
v -0.1 0.1 0.3
v -0.1 0.4 0.3
v 0.1 0.1 0.3
v 0.1 0.4 0.3
v 0.5 1.2 0.3
v 0.5 1.3 0.3
v 0.6 1.1 0.3
v 0.6 1.2 0.3
v 0.6 1.4 0.3
v 0.6 1.5 0.3
v 0.7 1.3 0.3
v 0.7 1.4 0.3
v 0.8 1.1 0.3
v 0.8 1.3 0.3
v -0.5 1.5 0.2
v -0.5 3.1 0.2
v -0.4 3.1 0.2
v -0.4 3.3 0.2
v -0.3 3.3 0.2
v -0.3 3.5 0.2
v -0.2 0.1 0.2
v -0.2 0.4 0.2
v -0.2 3.5 0.2
v -0.2 3.7 0.2
v -0.1 0 0.2
v -0.1 0.1 0.2
v -0.1 0.4 0.2
v -0.1 0.5 0.2
v -0.1 1.6 0.2
v -0.1 3.3 0.2
v -0.1 3.7 0.2
v -0.1 3.9 0.2
v 0.1 0 0.2
v 0.1 0.1 0.2
v 0.1 0.4 0.2
v 0.1 0.5 0.2
v 0.1 1.6 0.2
v 0.1 3.3 0.2
v 0.1 3.7 0.2
v 0.1 3.9 0.2
v 0.2 0.1 0.2
v 0.2 0.4 0.2
v 0.2 3.5 0.2
v 0.2 3.7 0.2
v 0.3 3.3 0.2
v 0.3 3.5 0.2
v 0.4 3.1 0.2
v 0.4 3.3 0.2
v 0.5 1.5 0.2
v 0.5 3.1 0.2
v -0.3 0.1 0.1
v -0.3 0.4 0.1
v -0.2 0 0.1
v -0.2 0.1 0.1
v -0.2 0.4 0.1
v -0.2 0.5 0.1
v -0.1 0 0.1
v -0.1 0.1 0.1
v -0.1 0.4 0.1
v -0.1 0.5 0.1
v -0.1 0.6 0.1
v -0.1 1.2 0.1
v -0.1 1.3 0.1
v 0.1 0 0.1
v 0.1 0.1 0.1
v 0.1 0.4 0.1
v 0.1 0.5 0.1
v 0.1 0.6 0.1
v 0.1 1.2 0.1
v 0.1 1.3 0.1
v 0.2 0 0.1
v 0.2 0.1 0.1
v 0.2 0.4 0.1
v 0.2 0.5 0.1
v 0.3 0.1 0.1
v 0.3 0.4 0.1
v -0.3 0.1 -0.1
v -0.3 0.4 -0.1
v -0.2 0 -0.1
v -0.2 0.1 -0.1
v -0.2 0.4 -0.1
v -0.2 0.5 -0.1
v -0.1 0 -0.1
v -0.1 0.1 -0.1
v -0.1 0.4 -0.1
v -0.1 0.5 -0.1
v -0.1 0.6 -0.1
v -0.1 1.2 -0.1
v -0.1 1.3 -0.1
v 0.1 0 -0.1
v 0.1 0.1 -0.1
v 0.1 0.4 -0.1
v 0.1 0.5 -0.1
v 0.1 0.6 -0.1
v 0.1 1.2 -0.1
v 0.1 1.3 -0.1
v 0.2 0 -0.1
v 0.2 0.1 -0.1
v 0.2 0.4 -0.1
v 0.2 0.5 -0.1
v 0.3 0.1 -0.1
v 0.3 0.4 -0.1
v -0.5 1.5 -0.2
v -0.5 3.1 -0.2
v -0.4 3.1 -0.2
v -0.4 3.3 -0.2
v -0.3 3.3 -0.2
v -0.3 3.5 -0.2
v -0.2 0.1 -0.2
v -0.2 0.4 -0.2
v -0.2 3.5 -0.2
v -0.2 3.7 -0.2
v -0.1 0 -0.2
v -0.1 0.1 -0.2
v -0.1 0.4 -0.2
v -0.1 0.5 -0.2
v -0.1 1.6 -0.2
v -0.1 3.3 -0.2
v -0.1 3.7 -0.2
v -0.1 3.9 -0.2
v 0.1 0 -0.2
v 0.1 0.1 -0.2
v 0.1 0.4 -0.2
v 0.1 0.5 -0.2
v 0.1 1.6 -0.2
v 0.1 3.3 -0.2
v 0.1 3.7 -0.2
v 0.1 3.9 -0.2
v 0.2 0.1 -0.2
v 0.2 0.4 -0.2
v 0.2 3.5 -0.2
v 0.2 3.7 -0.2
v 0.3 3.3 -0.2
v 0.3 3.5 -0.2
v 0.4 3.1 -0.2
v 0.4 3.3 -0.2
v 0.5 1.5 -0.2
v 0.5 3.1 -0.2
v -0.8 1.1 -0.3
v -0.8 1.3 -0.3
v -0.7 1.3 -0.3
v -0.7 1.4 -0.3
v -0.6 1.1 -0.3
v -0.6 1.2 -0.3
v -0.6 1.4 -0.3
v -0.6 1.5 -0.3
v -0.5 1.2 -0.3
v -0.5 1.3 -0.3
v -0.1 0.1 -0.3
v -0.1 0.4 -0.3
v 0.1 0.1 -0.3
v 0.1 0.4 -0.3
v 0.5 1.2 -0.3
v 0.5 1.3 -0.3
v 0.6 1.1 -0.3
v 0.6 1.2 -0.3
v 0.6 1.4 -0.3
v 0.6 1.5 -0.3
v 0.7 1.3 -0.3
v 0.7 1.4 -0.3
v 0.8 1.1 -0.3
v 0.8 1.3 -0.3
v -0.1 0 0.2
v 0.1 0 0.2
v -0.2 0 0.1
v -0.1 0 0.1
v 0.1 0 0.1
v 0.2 0 0.1
v -0.2 0 -0.1
v -0.1 0 -0.1
v 0.1 0 -0.1
v 0.2 0 -0.1
v -0.1 0 -0.2
v 0.1 0 -0.2
v -0.1 0.1 0.3
v 0.1 0.1 0.3
v -0.2 0.1 0.2
v -0.1 0.1 0.2
v 0.1 0.1 0.2
v 0.2 0.1 0.2
v -0.3 0.1 0.1
v -0.2 0.1 0.1
v -0.1 0.1 0.1
v 0.1 0.1 0.1
v 0.2 0.1 0.1
v 0.3 0.1 0.1
v -0.3 0.1 -0.1
v -0.2 0.1 -0.1
v -0.1 0.1 -0.1
v 0.1 0.1 -0.1
v 0.2 0.1 -0.1
v 0.3 0.1 -0.1
v -0.2 0.1 -0.2
v -0.1 0.1 -0.2
v 0.1 0.1 -0.2
v 0.2 0.1 -0.2
v -0.1 0.1 -0.3
v 0.1 0.1 -0.3
v -0.8 1.1 0.3
v -0.6 1.1 0.3
v 0.6 1.1 0.3
v 0.8 1.1 0.3
v -0.8 1.1 -0.3
v -0.6 1.1 -0.3
v 0.6 1.1 -0.3
v 0.8 1.1 -0.3
v -0.6 1.2 0.3
v -0.5 1.2 0.3
v 0.5 1.2 0.3
v 0.6 1.2 0.3
v -0.6 1.2 -0.3
v -0.5 1.2 -0.3
v 0.5 1.2 -0.3
v 0.6 1.2 -0.3
v -0.5 1.3 0.3
v 0.5 1.3 0.3
v -0.1 1.3 0.1
v 0.1 1.3 0.1
v -0.1 1.3 -0.1
v 0.1 1.3 -0.1
v -0.5 1.3 -0.3
v 0.5 1.3 -0.3
v -0.1 0.4 0.3
v 0.1 0.4 0.3
v -0.2 0.4 0.2
v -0.1 0.4 0.2
v 0.1 0.4 0.2
v 0.2 0.4 0.2
v -0.3 0.4 0.1
v -0.2 0.4 0.1
v -0.1 0.4 0.1
v 0.1 0.4 0.1
v 0.2 0.4 0.1
v 0.3 0.4 0.1
v -0.3 0.4 -0.1
v -0.2 0.4 -0.1
v -0.1 0.4 -0.1
v 0.1 0.4 -0.1
v 0.2 0.4 -0.1
v 0.3 0.4 -0.1
v -0.2 0.4 -0.2
v -0.1 0.4 -0.2
v 0.1 0.4 -0.2
v 0.2 0.4 -0.2
v -0.1 0.4 -0.3
v 0.1 0.4 -0.3
v -0.1 0.5 0.2
v 0.1 0.5 0.2
v -0.2 0.5 0.1
v -0.1 0.5 0.1
v 0.1 0.5 0.1
v 0.2 0.5 0.1
v -0.2 0.5 -0.1
v -0.1 0.5 -0.1
v 0.1 0.5 -0.1
v 0.2 0.5 -0.1
v -0.1 0.5 -0.2
v 0.1 0.5 -0.2
v -0.8 1.3 0.3
v -0.7 1.3 0.3
v 0.7 1.3 0.3
v 0.8 1.3 0.3
v -0.8 1.3 -0.3
v -0.7 1.3 -0.3
v 0.7 1.3 -0.3
v 0.8 1.3 -0.3
v -0.7 1.4 0.3
v -0.6 1.4 0.3
v 0.6 1.4 0.3
v 0.7 1.4 0.3
v -0.7 1.4 -0.3
v -0.6 1.4 -0.3
v 0.6 1.4 -0.3
v 0.7 1.4 -0.3
v -0.6 1.5 0.3
v 0.6 1.5 0.3
v -0.5 1.5 0.2
v 0.5 1.5 0.2
v -0.5 1.5 -0.2
v 0.5 1.5 -0.2
v -0.6 1.5 -0.3
v 0.6 1.5 -0.3
v -0.5 3.1 0.2
v -0.4 3.1 0.2
v 0.4 3.1 0.2
v 0.5 3.1 0.2
v -0.5 3.1 -0.2
v -0.4 3.1 -0.2
v 0.4 3.1 -0.2
v 0.5 3.1 -0.2
v -0.4 3.3 0.2
v -0.3 3.3 0.2
v 0.3 3.3 0.2
v 0.4 3.3 0.2
v -0.4 3.3 -0.2
v -0.3 3.3 -0.2
v 0.3 3.3 -0.2
v 0.4 3.3 -0.2
v -0.3 3.5 0.2
v -0.2 3.5 0.2
v 0.2 3.5 0.2
v 0.3 3.5 0.2
v -0.3 3.5 -0.2
v -0.2 3.5 -0.2
v 0.2 3.5 -0.2
v 0.3 3.5 -0.2
v -0.2 3.7 0.2
v -0.1 3.7 0.2
v 0.1 3.7 0.2
v 0.2 3.7 0.2
v -0.2 3.7 -0.2
v -0.1 3.7 -0.2
v 0.1 3.7 -0.2
v 0.2 3.7 -0.2
v -0.1 3.9 0.2
v 0.1 3.9 0.2
v -0.1 3.9 -0.2
v 0.1 3.9 -0.2

# faces
f 3/3/1 2/3/1 1/3/1
f 4/3/1 2/3/1 3/3/1
f 7/3/1 6/3/1 5/3/1
f 8/3/1 6/3/1 7/3/1
f 11/3/1 10/3/1 9/3/1
f 12/3/1 10/3/1 11/3/1
f 15/4/1 14/4/1 13/4/1
f 16/4/1 14/4/1 15/4/1
f 19/4/1 18/4/1 17/4/1
f 20/4/1 18/4/1 19/4/1
f 23/1/1 22/1/1 21/1/1
f 24/1/1 22/1/1 23/1/1
f 27/4/1 26/4/1 25/4/1
f 28/4/1 26/4/1 27/4/1
f 32/1/1 30/1/1 29/1/1
f 33/1/1 30/1/1 32/1/1
f 35/1/1 32/1/1 31/1/1
f 36/1/1 32/1/1 35/1/1
f 37/1/1 34/1/1 33/1/1
f 38/1/1 34/1/1 37/1/1
f 39/1/1 37/1/1 36/1/1
f 40/1/1 37/1/1 39/1/1
f 43/4/1 42/4/1 41/4/1
f 44/4/1 42/4/1 43/4/1
f 50/1/1 46/1/1 45/1/1
f 51/1/1 46/1/1 50/1/1
f 52/1/1 48/1/1 47/1/1
f 53/1/1 48/1/1 52/1/1
f 55/1/1 50/1/1 49/1/1
f 56/1/1 50/1/1 55/1/1
f 59/1/1 54/1/1 53/1/1
f 60/1/1 54/1/1 59/1/1
f 61/1/1 57/1/1 56/1/1
f 62/1/1 57/1/1 61/1/1
f 63/1/1 59/1/1 58/1/1
f 64/1/1 59/1/1 63/1/1
f 65/3/1 63/3/1 62/3/1
f 66/3/1 63/3/1 65/3/1
f 67/2/1 66/2/1 65/2/1
f 68/2/1 66/2/1 67/2/1
f 69/3/1 68/3/1 67/3/1
f 70/3/1 68/3/1 69/3/1
f 73/4/1 72/4/1 71/4/1
f 74/4/1 72/4/1 73/4/1
f 77/3/1 76/3/1 75/3/1
f 78/3/1 76/3/1 77/3/1
f 81/3/1 80/3/1 79/3/1
f 82/3/1 80/3/1 81/3/1
f 83/3/2 84/3/2 85/3/2
f 85/3/2 84/3/2 86/3/2
f 87/3/2 88/3/2 89/3/2
f 89/3/2 88/3/2 90/3/2
f 91/1/2 92/1/2 96/1/2
f 96/1/2 92/1/2 97/1/2
f 93/1/2 94/1/2 98/1/2
f 98/1/2 94/1/2 99/1/2
f 95/1/2 96/1/2 101/1/2
f 101/1/2 96/1/2 102/1/2
f 99/1/2 100/1/2 105/1/2
f 105/1/2 100/1/2 106/1/2
f 102/1/2 103/1/2 107/1/2
f 107/1/2 103/1/2 108/1/2
f 104/1/2 105/1/2 109/1/2
f 109/1/2 105/1/2 110/1/2
f 108/3/2 109/3/2 111/3/2
f 111/3/2 109/3/2 112/3/2
f 111/2/2 112/2/2 113/2/2
f 113/2/2 112/2/2 114/2/2
f 113/3/2 114/3/2 115/3/2
f 115/3/2 114/3/2 116/3/2
f 117/4/2 118/4/2 119/4/2
f 119/4/2 118/4/2 120/4/2
f 121/1/2 122/1/2 124/1/2
f 124/1/2 122/1/2 125/1/2
f 123/1/2 124/1/2 127/1/2
f 127/1/2 124/1/2 128/1/2
f 125/1/2 126/1/2 129/1/2
f 129/1/2 126/1/2 130/1/2
f 128/1/2 129/1/2 131/1/2
f 131/1/2 129/1/2 132/1/2
f 133/4/2 134/4/2 135/4/2
f 135/4/2 134/4/2 136/4/2
f 137/1/2 138/1/2 139/1/2
f 139/1/2 138/1/2 140/1/2
f 141/4/2 142/4/2 143/4/2
f 143/4/2 142/4/2 144/4/2
f 145/4/2 146/4/2 147/4/2
f 147/4/2 146/4/2 148/4/2
f 149/4/2 150/4/2 151/4/2
f 151/4/2 150/4/2 152/4/2
f 153/3/2 154/3/2 155/3/2
f 155/3/2 154/3/2 156/3/2
f 157/3/2 158/3/2 159/3/2
f 159/3/2 158/3/2 160/3/2
f 161/3/2 162/3/2 163/3/2
f 163/3/2 162/3/2 164/3/2
f 167/3/3 166/3/3 165/3/3
f 169/3/3 167/3/3 165/3/3
f 169/3/3 168/3/3 167/3/3
f 170/3/3 168/3/3 169/3/3
f 171/3/3 168/3/3 170/3/3
f 173/3/3 172/3/3 171/3/3
f 173/3/3 171/3/3 170/3/3
f 174/3/3 172/3/3 173/3/3
f 177/1/3 176/1/3 175/1/3
f 178/1/3 176/1/3 177/1/3
f 180/3/3 172/3/3 174/3/3
f 182/3/3 180/3/3 179/3/3
f 183/3/3 172/3/3 180/3/3
f 183/3/3 180/3/3 182/3/3
f 184/3/3 172/3/3 183/3/3
f 185/3/3 182/3/3 181/3/3
f 185/3/3 183/3/3 182/3/3
f 186/3/3 183/3/3 185/3/3
f 187/3/3 185/3/3 181/3/3
f 188/3/3 185/3/3 187/3/3
f 191/4/3 190/4/3 189/4/3
f 193/4/3 192/4/3 191/4/3
f 197/4/3 194/4/3 193/4/3
f 200/1/3 196/1/3 195/1/3
f 201/1/3 196/1/3 200/1/3
f 203/4/3 191/4/3 189/4/3
f 203/4/3 193/4/3 191/4/3
f 203/4/3 198/4/3 197/4/3
f 203/4/3 197/4/3 193/4/3
f 204/4/3 198/4/3 203/4/3
f 205/4/3 198/4/3 204/4/3
f 207/1/3 200/1/3 199/1/3
f 208/1/3 200/1/3 207/1/3
f 209/1/3 202/1/3 201/1/3
f 210/1/3 202/1/3 209/1/3
f 211/4/3 203/4/3 189/4/3
f 211/3/3 204/3/3 203/3/3
f 212/4/3 206/4/3 205/4/3
f 212/3/3 204/3/3 211/3/3
f 212/4/3 205/4/3 204/4/3
f 213/4/3 206/4/3 212/4/3
f 214/4/3 206/4/3 213/4/3
f 215/1/3 209/1/3 208/1/3
f 216/1/3 209/1/3 215/1/3
f 217/4/3 213/4/3 212/4/3
f 217/4/3 212/4/3 211/4/3
f 218/4/3 213/4/3 217/4/3
f 219/4/3 217/4/3 211/4/3
f 220/4/3 217/4/3 219/4/3
f 221/4/3 219/4/3 211/4/3
f 222/4/3 219/4/3 221/4/3
f 223/4/3 211/4/3 189/4/3
f 223/4/3 221/4/3 211/4/3
f 224/4/3 221/4/3 223/4/3
f 228/1/3 226/1/3 225/1/3
f 229/1/3 226/1/3 228/1/3
f 231/1/3 228/1/3 227/1/3
f 232/1/3 228/1/3 231/1/3
f 233/1/3 230/1/3 229/1/3
f 234/1/3 230/1/3 233/1/3
f 241/3/3 235/3/3 234/3/3
f 242/2/3 236/2/3 235/2/3
f 242/3/3 235/3/3 241/3/3
f 243/3/3 237/3/3 236/3/3
f 243/2/3 236/2/3 242/2/3
f 244/3/3 237/3/3 243/3/3
f 245/1/3 239/1/3 238/1/3
f 246/1/3 239/1/3 245/1/3
f 247/1/3 241/1/3 240/1/3
f 248/1/3 241/1/3 247/1/3
f 249/1/3 247/1/3 246/1/3
f 250/1/3 247/1/3 249/1/3
f 251/1/4 252/1/4 254/1/4
f 254/1/4 252/1/4 255/1/4
f 253/1/4 254/1/4 257/1/4
f 257/1/4 254/1/4 258/1/4
f 255/1/4 256/1/4 259/1/4
f 259/1/4 256/1/4 260/1/4
f 260/3/4 261/3/4 267/3/4
f 261/2/4 262/2/4 268/2/4
f 267/3/4 261/3/4 268/3/4
f 262/3/4 263/3/4 269/3/4
f 268/2/4 262/2/4 269/2/4
f 269/3/4 263/3/4 270/3/4
f 264/1/4 265/1/4 271/1/4
f 271/1/4 265/1/4 272/1/4
f 266/1/4 267/1/4 273/1/4
f 273/1/4 267/1/4 274/1/4
f 272/1/4 273/1/4 275/1/4
f 275/1/4 273/1/4 276/1/4
f 277/4/4 278/4/4 279/4/4
f 279/4/4 280/4/4 281/4/4
f 281/4/4 282/4/4 285/4/4
f 283/1/4 284/1/4 288/1/4
f 288/1/4 284/1/4 289/1/4
f 277/4/4 279/4/4 291/4/4
f 279/4/4 281/4/4 291/4/4
f 285/4/4 286/4/4 291/4/4
f 281/4/4 285/4/4 291/4/4
f 291/4/4 286/4/4 292/4/4
f 292/4/4 286/4/4 293/4/4
f 287/1/4 288/1/4 295/1/4
f 295/1/4 288/1/4 296/1/4
f 289/1/4 290/1/4 297/1/4
f 297/1/4 290/1/4 298/1/4
f 277/4/4 291/4/4 299/4/4
f 291/3/4 292/3/4 299/3/4
f 293/4/4 294/4/4 300/4/4
f 299/3/4 292/3/4 300/3/4
f 292/4/4 293/4/4 300/4/4
f 300/4/4 294/4/4 301/4/4
f 301/4/4 294/4/4 302/4/4
f 296/1/4 297/1/4 303/1/4
f 303/1/4 297/1/4 304/1/4
f 300/4/4 301/4/4 305/4/4
f 299/4/4 300/4/4 305/4/4
f 305/4/4 301/4/4 306/4/4
f 299/4/4 305/4/4 307/4/4
f 307/4/4 305/4/4 308/4/4
f 299/4/4 307/4/4 309/4/4
f 309/4/4 307/4/4 310/4/4
f 277/4/4 299/4/4 311/4/4
f 299/4/4 309/4/4 311/4/4
f 311/4/4 309/4/4 312/4/4
f 313/3/4 314/3/4 315/3/4
f 313/3/4 315/3/4 317/3/4
f 315/3/4 316/3/4 317/3/4
f 317/3/4 316/3/4 318/3/4
f 318/3/4 316/3/4 319/3/4
f 319/3/4 320/3/4 321/3/4
f 318/3/4 319/3/4 321/3/4
f 321/3/4 320/3/4 322/3/4
f 323/1/4 324/1/4 325/1/4
f 325/1/4 324/1/4 326/1/4
f 322/3/4 320/3/4 328/3/4
f 327/3/4 328/3/4 330/3/4
f 328/3/4 320/3/4 331/3/4
f 330/3/4 328/3/4 331/3/4
f 331/3/4 320/3/4 332/3/4
f 329/3/4 330/3/4 333/3/4
f 330/3/4 331/3/4 333/3/4
f 333/3/4 331/3/4 334/3/4
f 329/3/4 333/3/4 335/3/4
f 335/3/4 333/3/4 336/3/4
f 340/1/5 338/1/5 337/1/5
f 341/1/5 338/1/5 340/1/5
f 343/1/5 340/1/5 339/1/5
f 343/1/5 342/1/5 341/1/5
f 343/1/5 341/1/5 340/1/5
f 344/1/5 342/1/5 343/1/5
f 345/1/5 342/1/5 344/1/5
f 346/1/5 342/1/5 345/1/5
f 347/1/5 345/1/5 344/1/5
f 348/1/5 345/1/5 347/1/5
f 352/1/5 350/1/5 349/1/5
f 353/1/5 350/1/5 352/1/5
f 356/1/5 352/1/5 351/1/5
f 357/1/5 352/1/5 356/1/5
f 358/1/5 354/1/5 353/1/5
f 359/1/5 354/1/5 358/1/5
f 361/1/5 356/1/5 355/1/5
f 362/1/5 356/1/5 361/1/5
f 365/1/5 360/1/5 359/1/5
f 366/1/5 360/1/5 365/1/5
f 367/1/5 363/1/5 362/1/5
f 368/1/5 363/1/5 367/1/5
f 369/1/5 365/1/5 364/1/5
f 370/1/5 365/1/5 369/1/5
f 371/1/5 369/1/5 368/1/5
f 372/1/5 369/1/5 371/1/5
f 377/3/5 374/3/5 373/3/5
f 378/3/5 374/3/5 377/3/5
f 379/3/5 376/3/5 375/3/5
f 380/3/5 376/3/5 379/3/5
f 385/3/5 382/3/5 381/3/5
f 386/3/5 382/3/5 385/3/5
f 387/3/5 384/3/5 383/3/5
f 388/3/5 384/3/5 387/3/5
f 391/3/5 390/3/5 389/3/5
f 392/3/5 390/3/5 391/3/5
f 393/3/5 391/3/5 389/3/5
f 394/3/5 390/3/5 392/3/5
f 395/3/5 393/3/5 389/3/5
f 395/3/5 394/3/5 393/3/5
f 396/3/5 390/3/5 394/3/5
f 396/3/5 394/3/5 395/3/5
f 397/1/6 398/1/6 400/1/6
f 400/1/6 398/1/6 401/1/6
f 399/1/6 400/1/6 404/1/6
f 404/1/6 400/1/6 405/1/6
f 401/1/6 402/1/6 406/1/6
f 406/1/6 402/1/6 407/1/6
f 403/1/6 404/1/6 409/1/6
f 409/1/6 404/1/6 410/1/6
f 407/1/6 408/1/6 413/1/6
f 413/1/6 408/1/6 414/1/6
f 410/1/6 411/1/6 415/1/6
f 415/1/6 411/1/6 416/1/6
f 412/1/6 413/1/6 417/1/6
f 417/1/6 413/1/6 418/1/6
f 416/1/6 417/1/6 419/1/6
f 419/1/6 417/1/6 420/1/6
f 421/1/6 422/1/6 424/1/6
f 424/1/6 422/1/6 425/1/6
f 423/1/6 424/1/6 427/1/6
f 427/1/6 424/1/6 428/1/6
f 425/1/6 426/1/6 429/1/6
f 429/1/6 426/1/6 430/1/6
f 428/1/6 429/1/6 431/1/6
f 431/1/6 429/1/6 432/1/6
f 433/3/6 434/3/6 437/3/6
f 437/3/6 434/3/6 438/3/6
f 435/3/6 436/3/6 439/3/6
f 439/3/6 436/3/6 440/3/6
f 441/3/6 442/3/6 445/3/6
f 445/3/6 442/3/6 446/3/6
f 443/3/6 444/3/6 447/3/6
f 447/3/6 444/3/6 448/3/6
f 449/3/6 450/3/6 451/3/6
f 451/3/6 450/3/6 452/3/6
f 449/3/6 451/3/6 453/3/6
f 452/3/6 450/3/6 454/3/6
f 449/3/6 453/3/6 455/3/6
f 453/3/6 454/3/6 455/3/6
f 454/3/6 450/3/6 456/3/6
f 455/3/6 454/3/6 456/3/6
f 457/4/6 458/4/6 461/4/6
f 461/4/6 458/4/6 462/4/6
f 459/4/6 460/4/6 463/4/6
f 463/4/6 460/4/6 464/4/6
f 465/4/6 466/4/6 469/4/6
f 469/4/6 466/4/6 470/4/6
f 467/4/6 468/4/6 471/4/6
f 471/4/6 468/4/6 472/4/6
f 473/4/6 474/4/6 477/4/6
f 477/4/6 474/4/6 478/4/6
f 475/4/6 476/4/6 479/4/6
f 479/4/6 476/4/6 480/4/6
f 481/4/6 482/4/6 485/4/6
f 485/4/6 482/4/6 486/4/6
f 483/4/6 484/4/6 487/4/6
f 487/4/6 484/4/6 488/4/6
f 489/4/6 490/4/6 491/4/6
f 491/4/6 490/4/6 492/4/6
